# AST/ASF file generated using VICON BodyLanguage
# -----------------------------------------------
:version 1.10
:name VICON
:units
  mass 1.0
  length 0.45
  angle deg
:documentation
   .ast/.asf automatically generated from VICON data using
   VICON BodyBuilder and BodyLanguage model FoxedUp or BRILLIANT.MOD
:root
   order TX TY TZ RX RY RZ
   axis XYZ
   position 0 0 0  
   orientation 0 0 0 
:bonedata
  begin
     id 1 
     name lhipjoint
     direction 0.589753 -0.68606 0.426044 
     length 2.54082 
     axis 0 0 0  XYZ
  end
  begin
     id 2 
     name lfemur
     direction 0.34202 -0.939693 0  
     length 7.04539  
     axis 0 0 20  XYZ
    dof rx ry rz
    limits (-160.0 20.0)
           (-70.0 70.0)
           (-60.0 70.0)
  end
  begin
     id 3 
     name ltibia
     direction 0.34202 -0.939693 0   
     length 7.83772   
     axis 0 0 20   XYZ
    dof rx
    limits (-10.0 170.0)
  end
  begin
     id 4 
     name lfoot
     direction 0.0596604 -0.163915 0.984669   
     length 2.39542   
     axis -90 7.62852e-016 20   XYZ
    dof rx rz
    limits (-45.0 90.0)
           (-70.0 20.0)
  end
  begin
     id 5 
     name ltoes
     direction 1.53514e-011 -4.21954e-011 1   
     length 1.2047   
     axis -90 7.62852e-016 20   XYZ
    dof rx
    limits (-90.0 20.0)
  end
  begin
     id 6 
     name rhipjoint
     direction -0.580585 -0.69168 0.429534   
     length 2.52018  
     axis 0 0 0  XYZ 
  end
  begin
     id 7 
     name rfemur
     direction -0.34202 -0.939693 0   
     length 7.0101   
     axis 0 0 -20   XYZ
    dof rx ry rz
    limits (-160.0 20.0)
           (-70.0 70.0)
           (-70.0 60.0)
  end
  begin
     id 8 
     name rtibia
     direction -0.34202 -0.939693 0   
     length 7.70628   
     axis 0 0 -20   XYZ
    dof rx
    limits (-10.0 170.0)
 end
 begin
     id 9 
     name rfoot
     direction -0.0696237 -0.19129 0.979061   
     length 2.52466  
     axis -90 -7.62852e-016 -20   XYZ
    dof rx rz
    limits (-45.0 90.0)
           (-20.0 70.0)
  end
  begin
     id 10 
     name rtoes
     direction -1.53519e-011 -4.21793e-011 1   
     length 1.266   
     axis -90 -7.62852e-016 -20   XYZ
    dof rx
    limits (-90.0 20.0)
  end
  begin
     id 11 
     name lowerback
     direction 0.00381965 0.995707 -0.0924856   
     length 2.20825   
     axis 0 0 0   XYZ
    dof rx ry rz
    limits (-20.0 45.0)
           (-30.0 30.0)
           (-30.0 30.0)
  end
  begin
     id 12 
     name upperback
     direction -0.0139043 0.999634 -0.0231929   
     length 2.21517   
     axis 0 0 0   XYZ
    dof rx ry rz
    limits (-20.0 45.0)
           (-30.0 30.0)
           (-30.0 30.0)
  end
  begin
     id 13 
     name thorax
     direction -0.0143933 0.999691 0.0202892   
     length 2.22911   
     axis 0 0 0   XYZ
    dof rx ry rz
    limits (-20.0 45.0)
           (-30.0 30.0)
           (-30.0 30.0)
  end
  begin
     id 14 
     name lowerneck
     direction -0.0251153 0.981819 0.188153   
     length 1.61782   
     axis 0 0 0   XYZ
    dof rx ry rz
    limits (-20.0 45.0)
           (-30.0 30.0)
           (-30.0 30.0)
  end
  begin
     id 15 
     name upperneck
     direction 0.0563891 0.969357 -0.239095   
     length 1.64526   
     axis 0 0 0   XYZ
    dof rx ry rz
    limits (-20.0 45.0)
           (-30.0 30.0)
           (-30.0 30.0)
  end
  begin
     id 16
     name head
     direction 0.0208328 0.99459 -0.101773  
     length 1.67436  
     axis 0 0 0   XYZ
    dof rx ry rz
    limits (-20.0 45.0)
           (-30.0 30.0)
           (-30.0 30.0)
  end
  begin
     id 17 
     name lclavicle
     direction 0.917689 0.397224 0.00772059  
     length 3.31102  
     axis 0 0 0   XYZ
    dof ry rz
    limits (-20.0 10.0)
           (0.0 20.0)
  end
  begin
     id 18 
     name lhumerus
     direction 1 -4.4896e-011 2.32308e-027   
     length 5.25537   
     axis 180 -30 -90   XYZ
    dof rx ry rz
    limits (-60.0 90.0)
           (-90.0 90.0)
           (-90.0 90.0)
  end
  begin
     id 19
     name lradius
     direction 1 -4.49005e-011 -2.04271e-027   
     length 3.38855   
     axis 180 -30 -90   XYZ
    dof rx
    limits (-10.0 170.0)
  end
  begin
     id 20
     name lwrist
     direction 1 -4.48892e-011 2.56952e-028   
     length 1.69428   
     axis -5.12785e-016 90 90   XYZ
    dof ry
    limits (-180.0 0.0)
 end
  begin
     id 21 
     name lhand
     direction 1 -4.48966e-011 5.13905e-028   
     length 0.614516   
     axis -3.27915e-016 90 90   XYZ
    dof rx rz
    limits (-90.0 90.0)
           (-45.0 45.0)
  end
  begin
     id 22 
     name lfingers
     direction 1 -4.48979e-011 1.02781e-027   
     length 0.495439   
     axis -6.5583e-016 90 90   XYZ
    dof rx
    limits (0.0 90.0)
  end
  begin
     id 23
     name lthumb
     direction 0.707107 -6.35001e-011 0.707107   
     length 0.711354   
     axis -90 45 2.85299e-015   XYZ
    dof rx rz
    limits (-45.0 45.0)
           (-45.0 45.0)
  end
  begin
     id 24 
     name rclavicle
     direction -0.938556 0.342765 -0.0403177   
     length 3.27019  
     axis 0 0 0   XYZ 
    dof ry rz
    limits (-10.0 20.0)
           (-20.0 0.0)
  end
  begin
     id 25 
     name rhumerus
     direction -1 -4.48966e-011 2.52291e-027  
     length 5.38183   
     axis 180 30 90   XYZ
    dof rx ry rz
    limits (-90.0 60.0)
           (-90.0 90.0)
           (-90.0 90.0)
  end
  begin
     id 26 
     name rradius
     direction -1 -4.4896e-011 1.5797e-027   
     length 3.16988   
     axis 180 30 90   XYZ
    dof rx
    limits (-10.0 170.0)
  end
  begin
     id 27 
     name rwrist
     direction -1 -4.48947e-011 2.56952e-028   
     length 1.58494   
     axis -5.12785e-016 -90 -90   XYZ
    dof ry
    limits (-180.0 0.0)
  end
  begin
     id 28
     name rhand
     direction -1 -4.49098e-011 5.13905e-028   
     length 0.637679   
     axis -3.27915e-016 -90 -90   XYZ
    dof rx rz
    limits (-90.0 90.0)
           (-45.0 45.0)
  end
  begin
     id 29
     name rfingers
     direction -1 -4.49026e-011 1.02781e-027   
     length 0.514113   
     axis -6.5583e-016 -90 -90   XYZ
    dof rx
    limits (0.0 90.0)
  end
  begin
     id 30
     name rthumb
     direction -0.707107 -6.3491e-011 0.707107   
     length 0.738167   
     axis -90 -45 -2.85299e-015   XYZ
    dof rx rz
    limits (-45.0 45.0)
           (-45.0 45.0)
  end
:hierarchy
  begin
    root lhipjoint rhipjoint lowerback
    lhipjoint lfemur
    lfemur ltibia
    ltibia lfoot
    lfoot ltoes
    rhipjoint rfemur
    rfemur rtibia
    rtibia rfoot
    rfoot rtoes
    lowerback upperback
    upperback thorax
    thorax lowerneck lclavicle rclavicle
    lowerneck upperneck
    upperneck head
    lclavicle lhumerus
    lhumerus lradius
    lradius lwrist
    lwrist lhand lthumb
    lhand lfingers
    rclavicle rhumerus
    rhumerus rradius
    rradius rwrist
    rwrist rhand rthumb
    rhand rfingers
  end

#!OML:ASF H:\Swim\Project 1\Capture day 1\Session 1\swimmer.ASF
:FULLY-SPECIFIED
:DEGREES
4133
root 4.4406 11.9865 9.11766 103.184 -2.12689 -2.85975
lowerback -1.59824 0.568516 -0.0494925
upperback -3.24124 0.724775 -2.23627
thorax -2.402 0.338375 -2.2735
lowerneck -11.3189 -6.11119 -9.59168
upperneck -6.61551 -6.99671 16.2014
head 0.897367 -3.28066 6.18812
rclavicle -4.57205e-015 1.58966e-014
rhumerus 11.3089 39.403 17.742
rradius 63.9319
rwrist -32.3939
rhand 8.48735 7.97829
rfingers 7.12502
rthumb 33.6903 -18.8737
lclavicle -4.57205e-015 1.58966e-014
lhumerus 26.6475 -31.1454 -28.0535
lradius 64.8149
lwrist 18.6949
lhand 3.33689 3.70649
lfingers 7.12502
lthumb 28.7824 31.5075
rfemur -35.9367 13.0773 10.8842
rtibia 38.4308
rfoot 0.610398 -17.5903
rtoes -2.15374
lfemur -33.6512 -9.24159 -12.6038
ltibia 36.621
lfoot 9.2668 11.0412
ltoes 7.77749
4134
root 4.44409 11.9895 9.10594 103.03 -2.13111 -2.89147
lowerback -1.48378 0.548802 -0.00879915
upperback -3.12706 0.698644 -2.22738
thorax -2.3492 0.324965 -2.2872
lowerneck -11.4696 -6.14093 -9.61877
upperneck -6.7691 -7.01069 16.1693
head 0.877229 -3.28652 6.18125
rclavicle 2.28602e-015 2.26118e-015
rhumerus 11.3177 39.7701 17.7885
rradius 65.0849
rwrist -32.5102
rhand 8.59214 8.40014
rfingers 7.12502
rthumb 33.7898 -18.43
lclavicle 2.28602e-015 2.26118e-015
lhumerus 26.4753 -31.8828 -28.0963
lradius 66.1737
lwrist 18.6045
lhand 2.89317 3.45909
lfingers 7.12502
lthumb 28.3585 31.3314
rfemur -35.7284 13.0813 10.9672
rtibia 38.4775
rfoot 0.476372 -17.648
rtoes -2.37941
lfemur -33.465 -9.16355 -12.6714
ltibia 36.6865
lfoot 9.31264 10.8737
ltoes 7.59565
4135
root 4.44753 11.9922 9.09509 102.883 -2.13187 -2.91891
lowerback -1.39543 0.530782 0.0200246
upperback -3.0134 0.675343 -2.21098
thorax -2.28242 0.313499 -2.28619
lowerneck -11.6241 -6.17586 -9.65046
upperneck -6.92003 -7.03126 16.1431
head 0.859721 -3.29534 6.17646
rclavicle -3.08116e-015 6.62201e-015
rhumerus 11.3376 40.1122 17.8248
rradius 66.2018
rwrist -32.8172
rhand 8.66858 8.73213
rfingers 7.12502
rthumb 33.8625 -18.0821
lclavicle -3.08116e-015 6.62201e-015
lhumerus 26.3117 -32.578 -28.1176
lradius 67.5317
lwrist 18.5407
lhand 2.45027 3.19823
lfingers 7.12502
lthumb 27.9351 31.1401
rfemur -35.5327 13.143 11.0219
rtibia 38.5142
rfoot 0.337592 -17.7457
rtoes -2.17507
lfemur -33.2821 -9.12541 -12.7103
ltibia 36.7256
lfoot 9.324 10.7082
ltoes 7.36317
4136
root 4.45098 11.9948 9.08521 102.742 -2.13209 -2.94546
lowerback -1.31752 0.51529 0.0320013
upperback -2.92088 0.655278 -2.19321
thorax -2.23168 0.303924 -2.27443
lowerneck -11.7472 -6.20928 -9.6955
upperneck -7.0677 -7.0498 16.1786
head 0.842039 -3.30356 6.19394
rclavicle 2.38542e-015 1.00883e-014
rhumerus 11.3762 40.4726 17.8382
rradius 67.2866
rwrist -33.314
rhand 8.7097 8.94796
rfingers 7.12502
rthumb 33.9015 -17.8576
lclavicle 2.38542e-015 1.00883e-014
lhumerus 26.1833 -33.2636 -28.1426
lradius 68.8778
lwrist 18.5186
lhand 2.01188 2.91081
lfingers 7.12502
lthumb 27.516 30.9202
rfemur -35.3481 13.2407 11.0541
rtibia 38.5424
rfoot 0.177356 -17.8669
rtoes -1.79324
lfemur -33.1002 -9.12617 -12.727
ltibia 36.7396
lfoot 9.31353 10.551
ltoes 7.16457
4137
root 4.4545 11.9973 9.07629 102.604 -2.13456 -2.97294
lowerback -1.23779 0.503038 0.0235585
upperback -2.85985 0.639001 -2.17704
thorax -2.21448 0.296379 -2.25319
lowerneck -11.817 -6.23336 -9.73039
upperneck -7.20858 -7.06027 16.2508
head 0.818785 -3.30955 6.22288
rclavicle 3.57812e-015 1.85864e-014
rhumerus 11.4324 40.8737 17.8269
rradius 68.3479
rwrist -33.9514
rhand 8.6977 9.04646
rfingers 7.12502
rthumb 33.8901 -17.7616
lclavicle 3.57812e-015 1.85864e-014
lhumerus 26.1053 -33.9541 -28.1767
lradius 70.1988
lwrist 18.5497
lhand 1.56689 2.60831
lfingers 7.12502
lthumb 27.0903 30.6847
rfemur -35.1721 13.3418 11.0727
rtibia 38.564
rfoot 0.00964955 -17.9855
rtoes -1.36955
lfemur -32.9183 -9.1605 -12.7294
ltibia 36.7327
lfoot 9.2719 10.4193
ltoes 6.93295
4138
root 4.45798 11.9996 9.0682 102.468 -2.13514 -3.00055
lowerback -1.15395 0.494646 -0.00865041
upperback -2.83675 0.627223 -2.15958
thorax -2.23874 0.291254 -2.21773
lowerneck -11.8218 -6.24316 -9.72809
upperneck -7.33784 -7.06062 16.3316
head 0.786664 -3.31346 6.25018
rclavicle -4.67144e-015 4.26145e-015
rhumerus 11.5074 41.3255 17.7855
rradius 69.3787
rwrist -34.6215
rhand 8.62927 9.06803
rfingers 7.12502
rthumb 33.8251 -17.7544
lclavicle -4.67144e-015 4.26145e-015
lhumerus 26.0912 -34.6634 -28.2318
lradius 71.4981
lwrist 18.6704
lhand 1.12323 2.32006
lfingers 7.12502
lthumb 26.6658 30.4618
rfemur -35.0053 13.4469 11.0847
rtibia 38.5821
rfoot -0.165937 -18.1007
rtoes -0.910034
lfemur -32.7376 -9.21954 -12.7167
ltibia 36.7096
lfoot 9.20205 10.3194
ltoes 6.74005
4139
root 4.46167 12.0021 9.06103 102.331 -2.13543 -3.03182
lowerback -1.05824 0.49036 -0.0413359
upperback -2.8414 0.620199 -2.14906
thorax -2.29802 0.288176 -2.18957
lowerneck -11.7828 -6.24586 -9.70493
upperneck -7.45678 -7.05745 16.4048
head 0.749056 -3.31756 6.27259
rclavicle 1.0138e-014 -9.7653e-015
rhumerus 11.5846 41.8153 17.729
rradius 70.4016
rwrist -35.2451
rhand 8.49526 9.05999
rfingers 7.12502
rthumb 33.6978 -17.7903
lclavicle 1.0138e-014 -9.7653e-015
lhumerus 26.1373 -35.3677 -28.2798
lradius 72.7309
lwrist 18.834
lhand 0.676913 2.02754
lfingers 7.12502
lthumb 26.2386 30.2335
rfemur -34.8447 13.503 11.1035
rtibia 38.5986
rfoot -0.384251 -18.2019
rtoes -1.00546
lfemur -32.5564 -9.28856 -12.6999
ltibia 36.6758
lfoot 9.1115 10.2553
ltoes 6.67048
